<svg xmlns="http://www.w3.org/2000/svg" viewBox="0 0 960 540" role="img" aria-labelledby="title desc">
  <title id="title">Data migration workflow visual</title>
  <desc id="desc">A generic visual showing records moving through validation into a normalized database.</desc>
  <rect width="960" height="540" fill="#f6fbfb"/>
  <rect x="74" y="78" width="812" height="384" rx="32" fill="#ffffff" stroke="#c9e7e4" stroke-width="4"/>
  <rect x="122" y="138" width="186" height="256" rx="22" fill="#123332"/>
  <text x="215" y="180" text-anchor="middle" fill="#a7f3d0" font-family="Arial, sans-serif" font-size="30" font-weight="700">ACCESS</text>
  <g fill="#d7ffef">
    <rect x="154" y="220" width="122" height="16" rx="8"/>
    <rect x="154" y="260" width="96" height="16" rx="8"/>
    <rect x="154" y="300" width="132" height="16" rx="8"/>
    <rect x="154" y="340" width="82" height="16" rx="8"/>
  </g>
  <path d="M335 268h138" stroke="#0f766e" stroke-width="12" stroke-linecap="round"/>
  <path d="M462 230l56 38-56 38" fill="none" stroke="#0f766e" stroke-width="12" stroke-linecap="round" stroke-linejoin="round"/>
  <rect x="520" y="152" width="146" height="236" rx="24" fill="#e8faf8" stroke="#0f766e" stroke-width="4"/>
  <text x="593" y="210" text-anchor="middle" fill="#0b4f4a" font-family="Arial, sans-serif" font-size="26" font-weight="700">VALIDATE</text>
  <circle cx="593" cy="277" r="42" fill="#ffffff" stroke="#2dd4bf" stroke-width="8"/>
  <path d="M570 277l18 18 36-43" fill="none" stroke="#e76f51" stroke-width="10" stroke-linecap="round" stroke-linejoin="round"/>
  <path d="M690 268h92" stroke="#0f766e" stroke-width="12" stroke-linecap="round"/>
  <path d="M774 230l56 38-56 38" fill="none" stroke="#0f766e" stroke-width="12" stroke-linecap="round" stroke-linejoin="round"/>
  <g transform="translate(794 138)">
    <ellipse cx="0" cy="24" rx="86" ry="28" fill="#17423f"/>
    <path d="M-86 24v174c0 15 38 28 86 28s86-13 86-28V24" fill="#20635e"/>
    <ellipse cx="0" cy="198" rx="86" ry="28" fill="#0f766e"/>
    <ellipse cx="0" cy="24" rx="58" ry="15" fill="#7dd3c7"/>
  </g>
  <text x="795" y="402" text-anchor="middle" fill="#0b4f4a" font-family="Arial, sans-serif" font-size="28" font-weight="700">NORMALIZED</text>
  <text x="480" y="442" text-anchor="middle" fill="#51615f" font-family="Arial, sans-serif" font-size="24">Migration controls, reconciliation, and data quality checks</text>
</svg>
