<svg xmlns="http://www.w3.org/2000/svg" width="670" height="386"><rect width="100%" height="100%" fill="white"/><text x="20" y="28" font-size="18" font-weight="700">Referral leakage by specialty and segment</text><text x="170" y="58" font-size="12">Commercial</text><text x="290" y="58" font-size="12">Medicaid</text><text x="410" y="58" font-size="12">Medicare</text><text x="530" y="58" font-size="12">Uninsured</text><text x="20" y="93" font-size="12">Behavioral Health</text><rect x="150" y="70" width="116" height="34" fill="rgb(245,141,141)" stroke="#ffffff"/><text x="178" y="92" font-size="12">20.6%</text><rect x="270" y="70" width="116" height="34" fill="rgb(245,83,83)" stroke="#ffffff"/><text x="298" y="92" font-size="12">32.4%</text><rect x="390" y="70" width="116" height="34" fill="rgb(245,162,162)" stroke="#ffffff"/><text x="418" y="92" font-size="12">16.5%</text><rect x="510" y="70" width="116" height="34" fill="rgb(245,134,134)" stroke="#ffffff"/><text x="538" y="92" font-size="12">22.1%</text><text x="20" y="131" font-size="12">Cardiology</text><rect x="150" y="108" width="116" height="34" fill="rgb(245,177,177)" stroke="#ffffff"/><text x="178" y="130" font-size="12">13.5%</text><rect x="270" y="108" width="116" height="34" fill="rgb(245,169,169)" stroke="#ffffff"/><text x="298" y="130" font-size="12">15.1%</text><rect x="390" y="108" width="116" height="34" fill="rgb(245,171,171)" stroke="#ffffff"/><text x="418" y="130" font-size="12">14.6%</text><rect x="510" y="108" width="116" height="34" fill="rgb(245,156,156)" stroke="#ffffff"/><text x="538" y="130" font-size="12">17.7%</text><text x="20" y="169" font-size="12">Dermatology</text><rect x="150" y="146" width="116" height="34" fill="rgb(245,149,149)" stroke="#ffffff"/><text x="178" y="168" font-size="12">19.1%</text><rect x="270" y="146" width="116" height="34" fill="rgb(245,115,115)" stroke="#ffffff"/><text x="298" y="168" font-size="12">25.9%</text><rect x="390" y="146" width="116" height="34" fill="rgb(245,140,140)" stroke="#ffffff"/><text x="418" y="168" font-size="12">20.9%</text><rect x="510" y="146" width="116" height="34" fill="rgb(245,94,94)" stroke="#ffffff"/><text x="538" y="168" font-size="12">30.2%</text><text x="20" y="207" font-size="12">Endocrinology</text><rect x="150" y="184" width="116" height="34" fill="rgb(245,139,139)" stroke="#ffffff"/><text x="178" y="206" font-size="12">21.0%</text><rect x="270" y="184" width="116" height="34" fill="rgb(245,140,140)" stroke="#ffffff"/><text x="298" y="206" font-size="12">21.0%</text><rect x="390" y="184" width="116" height="34" fill="rgb(245,134,134)" stroke="#ffffff"/><text x="418" y="206" font-size="12">22.2%</text><rect x="510" y="184" width="116" height="34" fill="rgb(245,104,104)" stroke="#ffffff"/><text x="538" y="206" font-size="12">28.2%</text><text x="20" y="245" font-size="12">Imaging</text><rect x="150" y="222" width="116" height="34" fill="rgb(245,198,198)" stroke="#ffffff"/><text x="178" y="244" font-size="12">9.2%</text><rect x="270" y="222" width="116" height="34" fill="rgb(245,168,168)" stroke="#ffffff"/><text x="298" y="244" font-size="12">15.4%</text><rect x="390" y="222" width="116" height="34" fill="rgb(245,182,182)" stroke="#ffffff"/><text x="418" y="244" font-size="12">12.6%</text><rect x="510" y="222" width="116" height="34" fill="rgb(245,168,168)" stroke="#ffffff"/><text x="538" y="244" font-size="12">15.4%</text><text x="20" y="283" font-size="12">Neurology</text><rect x="150" y="260" width="116" height="34" fill="rgb(245,129,129)" stroke="#ffffff"/><text x="178" y="282" font-size="12">23.2%</text><rect x="270" y="260" width="116" height="34" fill="rgb(245,97,97)" stroke="#ffffff"/><text x="298" y="282" font-size="12">29.5%</text><rect x="390" y="260" width="116" height="34" fill="rgb(245,110,110)" stroke="#ffffff"/><text x="418" y="282" font-size="12">26.9%</text><rect x="510" y="260" width="116" height="34" fill="rgb(245,75,75)" stroke="#ffffff"/><text x="538" y="282" font-size="12">34.0%</text><text x="20" y="321" font-size="12">Oncology</text><rect x="150" y="298" width="116" height="34" fill="rgb(245,186,186)" stroke="#ffffff"/><text x="178" y="320" font-size="12">11.6%</text><rect x="270" y="298" width="116" height="34" fill="rgb(245,205,205)" stroke="#ffffff"/><text x="298" y="320" font-size="12">7.9%</text><rect x="390" y="298" width="116" height="34" fill="rgb(245,193,193)" stroke="#ffffff"/><text x="418" y="320" font-size="12">10.2%</text><rect x="510" y="298" width="116" height="34" fill="rgb(245,175,175)" stroke="#ffffff"/><text x="538" y="320" font-size="12">14.0%</text><text x="20" y="359" font-size="12">Orthopedics</text><rect x="150" y="336" width="116" height="34" fill="rgb(245,147,147)" stroke="#ffffff"/><text x="178" y="358" font-size="12">19.6%</text><rect x="270" y="336" width="116" height="34" fill="rgb(245,124,124)" stroke="#ffffff"/><text x="298" y="358" font-size="12">24.1%</text><rect x="390" y="336" width="116" height="34" fill="rgb(245,176,176)" stroke="#ffffff"/><text x="418" y="358" font-size="12">13.6%</text><rect x="510" y="336" width="116" height="34" fill="rgb(245,113,113)" stroke="#ffffff"/><text x="538" y="358" font-size="12">26.3%</text></svg>