<svg xmlns="http://www.w3.org/2000/svg" width="888" height="248"><rect width="100%" height="100%" fill="white"/><text x="20" y="28" font-size="18" font-weight="700">Denial-rate heatmap</text><text x="170" y="58" font-size="11" transform="rotate(-20 170,58)">Behavioral Health</text><text x="288" y="58" font-size="11" transform="rotate(-20 288,58)">Cardiology</text><text x="406" y="58" font-size="11" transform="rotate(-20 406,58)">Imaging</text><text x="524" y="58" font-size="11" transform="rotate(-20 524,58)">Oncology</text><text x="642" y="58" font-size="11" transform="rotate(-20 642,58)">Orthopedics</text><text x="760" y="58" font-size="11" transform="rotate(-20 760,58)">Primary Care</text><text x="20" y="96" font-size="13">Aster Health</text><rect x="150" y="70" width="114" height="38" fill="rgb(138,158,245)" stroke="#ffffff"/><text x="172" y="94" font-size="12">22.6%</text><rect x="268" y="70" width="114" height="38" fill="rgb(162,182,245)" stroke="#ffffff"/><text x="290" y="94" font-size="12">17.6%</text><rect x="386" y="70" width="114" height="38" fill="rgb(150,170,245)" stroke="#ffffff"/><text x="408" y="94" font-size="12">20.2%</text><rect x="504" y="70" width="114" height="38" fill="rgb(163,183,245)" stroke="#ffffff"/><text x="526" y="94" font-size="12">17.4%</text><rect x="622" y="70" width="114" height="38" fill="rgb(161,181,245)" stroke="#ffffff"/><text x="644" y="94" font-size="12">17.7%</text><rect x="740" y="70" width="114" height="38" fill="rgb(174,194,245)" stroke="#ffffff"/><text x="762" y="94" font-size="12">14.9%</text><text x="20" y="138" font-size="13">Blue Harbor</text><rect x="150" y="112" width="114" height="38" fill="rgb(120,140,245)" stroke="#ffffff"/><text x="172" y="136" font-size="12">26.5%</text><rect x="268" y="112" width="114" height="38" fill="rgb(180,200,245)" stroke="#ffffff"/><text x="290" y="136" font-size="12">13.6%</text><rect x="386" y="112" width="114" height="38" fill="rgb(168,188,245)" stroke="#ffffff"/><text x="408" y="136" font-size="12">16.3%</text><rect x="504" y="112" width="114" height="38" fill="rgb(157,177,245)" stroke="#ffffff"/><text x="526" y="136" font-size="12">18.7%</text><rect x="622" y="112" width="114" height="38" fill="rgb(155,175,245)" stroke="#ffffff"/><text x="644" y="136" font-size="12">19.0%</text><rect x="740" y="112" width="114" height="38" fill="rgb(168,188,245)" stroke="#ffffff"/><text x="762" y="136" font-size="12">16.2%</text><text x="20" y="180" font-size="13">CivicCare</text><rect x="150" y="154" width="114" height="38" fill="rgb(135,155,245)" stroke="#ffffff"/><text x="172" y="178" font-size="12">23.3%</text><rect x="268" y="154" width="114" height="38" fill="rgb(164,184,245)" stroke="#ffffff"/><text x="290" y="178" font-size="12">17.1%</text><rect x="386" y="154" width="114" height="38" fill="rgb(162,182,245)" stroke="#ffffff"/><text x="408" y="178" font-size="12">17.6%</text><rect x="504" y="154" width="114" height="38" fill="rgb(173,193,245)" stroke="#ffffff"/><text x="526" y="178" font-size="12">15.3%</text><rect x="622" y="154" width="114" height="38" fill="rgb(156,176,245)" stroke="#ffffff"/><text x="644" y="178" font-size="12">18.9%</text><rect x="740" y="154" width="114" height="38" fill="rgb(177,197,245)" stroke="#ffffff"/><text x="762" y="178" font-size="12">14.4%</text><text x="20" y="222" font-size="13">Meridian Choice</text><rect x="150" y="196" width="114" height="38" fill="rgb(80,100,245)" stroke="#ffffff"/><text x="172" y="220" font-size="12">35.0%</text><rect x="268" y="196" width="114" height="38" fill="rgb(149,169,245)" stroke="#ffffff"/><text x="290" y="220" font-size="12">20.3%</text><rect x="386" y="196" width="114" height="38" fill="rgb(161,181,245)" stroke="#ffffff"/><text x="408" y="220" font-size="12">17.6%</text><rect x="504" y="196" width="114" height="38" fill="rgb(127,147,245)" stroke="#ffffff"/><text x="526" y="220" font-size="12">25.0%</text><rect x="622" y="196" width="114" height="38" fill="rgb(139,159,245)" stroke="#ffffff"/><text x="644" y="220" font-size="12">22.4%</text><rect x="740" y="196" width="114" height="38" fill="rgb(148,168,245)" stroke="#ffffff"/><text x="762" y="220" font-size="12">20.5%</text></svg>