<svg xmlns="http://www.w3.org/2000/svg" viewBox="0 0 960 540" role="img" aria-labelledby="title desc">
  <title id="title">Emissions analytics dashboard visual</title>
  <desc id="desc">A generic dashboard visual with emissions trend bars, map markers, and decision metrics.</desc>
  <rect width="960" height="540" fill="#f6fbfb"/>
  <rect x="72" y="70" width="816" height="400" rx="34" fill="#ffffff" stroke="#c9e7e4" stroke-width="4"/>
  <text x="124" y="130" fill="#123332" font-family="Arial, sans-serif" font-size="34" font-weight="700">Emissions Decision Support</text>
  <rect x="124" y="166" width="280" height="222" rx="24" fill="#123332"/>
  <path d="M164 334c44-84 108-96 142-54 26 32 48 18 72-46" fill="none" stroke="#2dd4bf" stroke-width="12" stroke-linecap="round"/>
  <g fill="#e76f51">
    <rect x="156" y="294" width="28" height="54" rx="8"/>
    <rect x="212" y="250" width="28" height="98" rx="8"/>
    <rect x="268" y="274" width="28" height="74" rx="8"/>
    <rect x="324" y="214" width="28" height="134" rx="8"/>
  </g>
  <rect x="442" y="166" width="168" height="96" rx="20" fill="#e8faf8" stroke="#2dd4bf" stroke-width="3"/>
  <text x="526" y="204" text-anchor="middle" fill="#0b4f4a" font-family="Arial, sans-serif" font-size="20" font-weight="700">Intensity</text>
  <text x="526" y="238" text-anchor="middle" fill="#123332" font-family="Arial, sans-serif" font-size="34" font-weight="700">Ranked</text>
  <rect x="634" y="166" width="168" height="96" rx="20" fill="#fff0ea" stroke="#e76f51" stroke-width="3"/>
  <text x="718" y="204" text-anchor="middle" fill="#9f341f" font-family="Arial, sans-serif" font-size="20" font-weight="700">Priority</text>
  <text x="718" y="238" text-anchor="middle" fill="#123332" font-family="Arial, sans-serif" font-size="34" font-weight="700">County</text>
  <rect x="442" y="292" width="360" height="96" rx="20" fill="#f2f7f6" stroke="#d5e6e4" stroke-width="3"/>
  <path d="M486 340h282" stroke="#c9e7e4" stroke-width="6" stroke-linecap="round"/>
  <g fill="#0f766e">
    <circle cx="494" cy="340" r="16"/>
    <circle cx="564" cy="340" r="10"/>
    <circle cx="634" cy="340" r="20"/>
    <circle cx="710" cy="340" r="12"/>
    <circle cx="760" cy="340" r="8"/>
  </g>
  <text x="480" y="438" text-anchor="middle" fill="#51615f" font-family="Arial, sans-serif" font-size="24">KPI normalization, dashboard specs, and stakeholder recommendations</text>
</svg>
